<?xml version="1.0" standalone="no"?>
<!DOCTYPE svg PUBLIC "-//W3C//DTD SVG 20010904//EN"
 "http://www.w3.org/TR/2001/REC-SVG-20010904/DTD/svg10.dtd">
<svg version="1.0" xmlns="http://www.w3.org/2000/svg"
 width="300.000000pt" height="101.000000pt" viewBox="0 0 300.000000 101.000000"
 preserveAspectRatio="xMidYMid meet">

<g transform="translate(0.000000,101.000000) scale(0.100000,-0.100000)"
fill="#000000" stroke="none">
<path d="M180 690 c0 -5 -5 -9 -11 -7 -6 1 -25 -15 -41 -35 -29 -35 -30 -39
-16 -55 45 -50 11 -133 -54 -133 l-28 0 0 -70 0 -70 35 0 c67 0 101 -78 55
-128 -11 -12 -17 -28 -14 -37 7 -17 44 -41 57 -37 5 1 6 -2 3 -7 -3 -5 1 -14
10 -21 12 -11 17 -11 27 0 9 10 9 11 0 6 -7 -4 -13 -5 -13 -2 0 3 10 10 21 17
15 7 19 8 15 0 -5 -7 -1 -9 8 -5 9 3 13 10 10 15 -3 5 2 6 10 3 20 -8 32 40
18 71 -8 18 -8 26 2 34 7 6 17 8 22 3 5 -4 -4 8 -20 26 -17 17 -24 32 -18 32
7 0 12 -4 12 -10 0 -5 9 -14 21 -20 20 -11 20 -11 -2 19 -12 17 -26 28 -31 25
-4 -3 -8 -2 -9 3 -5 58 -2 105 7 139 8 28 9 45 2 55 -8 11 -9 10 -4 -4 4 -11
2 -16 -5 -12 -14 9 -6 30 11 30 21 0 23 75 3 97 -13 15 -13 18 -2 19 8 1 3 5
-11 9 -23 7 -23 8 -3 9 12 1 33 -3 47 -9 16 -6 26 -6 26 0 0 5 -17 12 -37 15
-21 3 -46 10 -56 16 -10 5 -22 7 -27 4 -6 -3 -7 1 -4 9 3 9 1 16 -5 16 -6 0
-11 -4 -11 -10z"/>
<path d="M1089 413 c-61 -155 -78 -189 -101 -202 -15 -9 -28 -19 -28 -23 0 -5
29 -8 65 -8 63 0 85 12 45 25 -24 8 -25 18 -4 78 l16 47 74 0 75 0 15 -35 c23
-55 22 -77 -4 -90 -42 -22 -35 -25 56 -25 87 0 117 11 72 25 -25 8 -48 55
-125 248 -32 81 -64 147 -71 147 -6 0 -45 -84 -85 -187z m103 22 l27 -75 -61
0 c-53 0 -59 2 -54 18 32 84 52 132 56 132 3 0 17 -34 32 -75z"/>
<path d="M1420 592 c0 -4 10 -12 23 -17 21 -10 22 -14 25 -183 l2 -174 -30
-11 c-52 -20 -34 -27 65 -27 98 0 119 9 63 25 l-33 10 -3 83 c-2 70 -1 82 14
82 19 0 51 -33 124 -128 l54 -72 53 0 c55 0 71 15 27 26 -22 6 -164 159 -164
178 0 3 9 6 21 6 11 0 34 13 50 29 23 24 29 38 29 73 0 51 -26 82 -81 98 -40
12 -239 13 -239 2z m232 -39 c12 -11 18 -30 18 -60 0 -60 -25 -83 -90 -83
l-50 0 0 80 0 80 52 0 c34 0 58 -6 70 -17z"/>
<path d="M1830 550 c0 -55 14 -67 23 -21 6 30 44 51 93 51 54 0 54 1 54 -180
0 -179 -5 -200 -51 -200 -10 0 -19 -4 -19 -10 0 -6 42 -10 105 -10 107 0 131
8 73 25 l-33 10 -3 177 -2 178 25 6 c13 3 42 2 62 -3 29 -6 42 -16 53 -40 21
-46 30 -41 30 17 l0 50 -205 0 -205 0 0 -50z"/>
<path d="M2280 591 c0 -5 11 -12 24 -15 32 -8 36 -28 36 -198 0 -120 -3 -149
-16 -162 -8 -9 -22 -16 -30 -16 -8 0 -14 -4 -14 -10 0 -13 167 -13 175 0 3 6
-3 10 -13 10 -39 0 -43 20 -40 196 3 164 4 169 26 179 41 18 23 25 -63 25 -47
0 -85 -4 -85 -9z"/>
<path d="M2530 581 c0 -10 -3 -33 -6 -50 -8 -39 9 -41 25 -2 7 15 24 33 37 40
25 11 184 16 184 6 0 -4 -231 -328 -273 -382 -7 -10 30 -13 182 -13 l191 0 0
65 c0 73 -11 84 -28 26 -7 -21 -18 -43 -25 -49 -15 -12 -221 -20 -225 -9 -2 4
55 88 125 185 71 97 132 183 137 190 6 9 -29 12 -158 12 -156 0 -166 -1 -166
-19z"/>
<path d="M280 515 c-7 -8 -9 -15 -6 -15 4 0 14 7 22 15 9 8 11 15 6 15 -5 0
-15 -7 -22 -15z"/>
<path d="M322 96 c7 -8 15 -12 17 -11 5 6 -10 25 -20 25 -5 0 -4 -6 3 -14z"/>
</g>
</svg>
